# xmcd
#
# Track frame offsets:
#	150
#	11646
#	26895
#	41889
#	53384
#	64361
#	83195
#	94403
#	109359
#	121756
#
# Disc length: 1850 seconds
# Revision: 0
# Processed by: cddbd v1.5.2PL0 Copyright (c) Steve Scherf et al.
# Submitted via: dBpowerAMP V12.0
#
DISCID=8607380a
DTITLE=The Caleb Daugherty Band - Burnt The Sawmill Down
DYEAR=2019
DGENRE=Bluegrass
TTITLE0=Wildwood Flower Blues
TTITLE1=Burnt the Sawmill Down
TTITLE2=Long, Long Journey
TTITLE3=She's the Ramblin' Kind
TTITLE4=This Time
TTITLE5=Going Through the Motions
TTITLE6=Riding My Thumb to Mexico
TTITLE7=Aint Coming Back
TTITLE8=Big Wheels Rollin'
TTITLE9=Bandy the Rodeo Clown
EXTD=
EXTT0=
EXTT1=
EXTT2=
EXTT3=
EXTT4=
EXTT5=
EXTT6=
EXTT7=
EXTT8=
EXTT9=
PLAYORDER=
